<?xml version="1.0" standalone="no"?>
<!DOCTYPE svg PUBLIC "-//W3C//DTD SVG 20010904//EN"
 "http://www.w3.org/TR/2001/REC-SVG-20010904/DTD/svg10.dtd">
<svg version="1.0" xmlns="http://www.w3.org/2000/svg"
 width="512.000000pt" height="512.000000pt" viewBox="0 0 512.000000 512.000000"
 preserveAspectRatio="xMidYMid meet">

<g transform="translate(0.000000,512.000000) scale(0.100000,-0.100000)"
fill="#000000" stroke="none">
<path d="M867 5110 c-161 -27 -312 -166 -364 -335 -17 -57 -18 -149 -18 -2170
0 -1970 1 -2114 17 -2177 58 -223 213 -372 431 -413 116 -22 3653 -23 3683 -1
19 14 19 52 19 2546 0 2494 0 2532 -19 2546 -17 12 -285 14 -1860 13 -1013 -1
-1863 -5 -1889 -9z m135 -1740 c2 -1083 6 -1652 13 -1658 23 -22 54 -23 74 -3
l21 21 0 1645 0 1645 1710 0 1710 0 0 -1920 0 -1920 -1710 0 -1710 0 0 88 c0
99 -11 125 -54 125 -43 -1 -51 -17 -54 -117 l-4 -93 -55 -6 c-58 -6 -174 -55
-210 -89 -38 -36 -25 -88 21 -88 12 0 54 17 95 37 l74 38 1804 3 1803 2 0 -55
0 -55 -1742 0 c-1414 0 -1754 -3 -1799 -14 -110 -25 -197 -98 -248 -205 -22
-47 -26 -70 -26 -146 0 -77 4 -98 27 -147 37 -79 98 -142 177 -181 l66 -32
1676 -3 c1553 -2 1677 -1 1690 14 11 14 15 80 17 316 l3 298 79 0 80 0 0 -385
0 -386 -1782 4 c-1643 2 -1787 4 -1831 19 -132 47 -222 118 -270 215 -55 111
-52 -24 -52 2273 l0 2125 31 65 c65 136 183 209 351 219 l23 1 2 -1650z m3258
-2765 l0 -265 -1622 2 c-1538 3 -1625 4 -1663 21 -96 43 -158 137 -157 241 0
127 79 226 202 252 41 9 456 13 1648 13 l1592 1 0 -265z"/>
<path d="M1726 4097 c-24 -17 -24 -66 0 -84 14 -11 213 -13 1084 -13 948 0
1068 2 1088 16 23 16 28 48 12 74 -8 13 -142 15 -1088 18 -889 2 -1081 0
-1096 -11z"/>
<path d="M1735 3678 c-11 -6 -21 -11 -21 -12 -1 -1 -5 -11 -8 -23 -5 -15 -1
-28 13 -42 21 -21 25 -21 1092 -21 719 0 1077 3 1090 10 27 15 25 64 -3 84
-20 14 -139 16 -1083 16 -762 -1 -1066 -4 -1080 -12z"/>
<path d="M2162 3248 c-17 -17 -15 -54 4 -72 14 -14 86 -16 648 -16 623 0 633
0 651 20 15 16 17 26 9 48 l-9 27 -646 3 c-493 2 -648 -1 -657 -10z"/>
<path d="M954 715 c-15 -23 -15 -27 0 -50 l16 -25 1565 0 1565 0 16 25 c15 23
15 27 0 50 l-16 25 -1565 0 -1565 0 -16 -25z"/>
<path d="M954 525 c-15 -23 -15 -27 0 -50 l16 -25 1565 0 1565 0 16 25 c15 23
15 27 0 50 l-16 25 -1565 0 -1565 0 -16 -25z"/>
</g>
</svg>
